<svg xmlns="http://www.w3.org/2000/svg" width="383.603" height="72.711" viewBox="0 0 383.603 72.711">
  <g id="Group_2590" data-name="Group 2590" transform="translate(8.603 -1293.983)">
    <g id="Group_2169" data-name="Group 2169" transform="translate(-8.603 1293.983)" opacity="0.3">
      <path id="Path_9697" data-name="Path 9697" d="M235.795,1610.43a25.872,25.872,0,0,0-12.473,3.251s6.543-24.805-.177-27.984-8.317,10.34-8.317,10.34-2.006-21.385-7.478-16.632c-3.231,2.806-4.076,5.519-4.23,7.277-.415-3.946-2.339-12.264-11.245-10.59,0,0,.209-20.961-10.543-6.693,0,0-11.6-7.367-15.542,3.641,0,0-14.087-15.06-11.93,5.057,0,0-8.186-4.266-10.346,4.437,0,0-3.926-8.346-11.2-4.3,0,0,2.462-11.239-7.164-9.7,0,0,.961-20.929-10.012-7.986,0,0-7.586-9.336-14.45.8,0,0-7.986-5.958-11.51,4.686,0,0-5.275-19.3-10.611-2.916,0,0-14.758-12.581-14.356,6.405,0,0-6.208-8.2-13.315.789,0,0,1.213-19.848-9.07-6.368,0,0-3.746-13.049-12.095-3.143,0,0-9.813-9.675-15.342,1.952,0,0-9.207-21.2-13.358-2.046A8.279,8.279,0,0,0,0,1559.99v65.416l231.816-.53S255.362,1614.289,235.795,1610.43Z" transform="translate(-0.004 -1552.696)" fill="rgba(5,5,5,0.85)"/>
      <path id="Path_9698" data-name="Path 9698" d="M751.281,1610.43a25.874,25.874,0,0,1,12.473,3.251s-6.543-24.805.177-27.984,8.317,10.34,8.317,10.34,2.007-21.385,7.479-16.632c3.231,2.806,4.076,5.519,4.231,7.277.415-3.946,2.339-12.264,11.245-10.59,0,0-.21-20.961,10.543-6.693,0,0,11.6-7.367,15.541,3.641,0,0,14.088-15.06,11.931,5.057,0,0,8.185-4.266,10.347,4.437,0,0,3.926-8.346,11.2-4.3,0,0-2.461-11.239,7.164-9.7,0,0-.96-20.929,10.013-7.986,0,0,7.585-9.336,14.45.8,0,0,7.985-5.958,11.509,4.686,0,0,5.275-19.3,10.611-2.916,0,0,14.759-12.581,14.357,6.405,0,0,6.209-8.2,13.315.789,0,0-1.212-19.848,9.07-6.368,0,0,3.747-13.049,12.1-3.143,0,0,9.812-9.675,15.342,1.952,0,0,9.206-21.2,13.358-2.046a8.307,8.307,0,0,1,1.02-.716v65.416l-231.816-.53S731.713,1614.289,751.281,1610.43Z" transform="translate(-603.468 -1552.696)" fill="rgba(5,5,5,0.85)"/>
    </g>
  </g>
</svg>
