<svg xmlns="http://www.w3.org/2000/svg" xmlns:xlink="http://www.w3.org/1999/xlink" width="375" height="199.277" viewBox="0 0 375 199.277">
  <defs>
    <clipPath id="clip-path">
      <rect id="Rectangle_1134" data-name="Rectangle 1134" width="175.369" height="199.277" transform="translate(24.26 20.492)" fill="none"/>
    </clipPath>
    <clipPath id="clip-path-2">
      <rect id="Rectangle_1135" data-name="Rectangle 1135" width="175.369" height="199.277" transform="translate(0 20.492)" fill="none"/>
    </clipPath>
  </defs>
  <g id="Group_2591" data-name="Group 2591" transform="translate(0)">
    <g id="Group_2176" data-name="Group 2176" transform="translate(-24.26 -20.492)">
      <g id="Mask_Group_2175" data-name="Mask Group 2175" clip-path="url(#clip-path)">
        <path id="Path_10614" data-name="Path 10614" d="M4.86,183.33l21.015-15.151,5.572,29.878A96.588,96.588,0,0,1,4.86,183.33" fill="#d13966"/>
        <path id="Path_10615" data-name="Path 10615" d="M28.522,165.179,48.27,148.41l7.922,29.342a93.931,93.931,0,0,1-27.67-12.573" fill="#2bd6cc"/>
        <path id="Path_10616" data-name="Path 10616" d="M50.371,145.529,68.678,127.2l10.3,28.594a91.392,91.392,0,0,1-28.608-10.262" fill="#ff0056"/>
        <path id="Path_10617" data-name="Path 10617" d="M70.414,124.374l16.708-19.8,12.659,27.631a89,89,0,0,1-29.367-7.831" fill="#fff"/>
        <path id="Path_10618" data-name="Path 10618" d="M89.082,102.04,104.061,80.9,119,107.366a86.733,86.733,0,0,1-29.922-5.326" fill="#2bd6cc"/>
        <path id="Path_10619" data-name="Path 10619" d="M106.359,78.513l13.156-22.319,17.107,25.121a84.571,84.571,0,0,1-30.263-2.8" fill="#ff0056"/>
        <path id="Path_10620" data-name="Path 10620" d="M121.777,53.439l11.282-23.322,19.109,23.634c-10.745,1.7-20.929,1.738-30.391-.312" fill="#fff"/>
        <path id="Path_10621" data-name="Path 10621" d="M135.3,26.8,144.7,2.66,165.62,24.7c-10.632,2.581-20.787,3.454-30.32,2.1" fill="#2bd6cc"/>
        <path id="Path_10622" data-name="Path 10622" d="M89.76,102.953a407.95,407.95,0,0,0,57.4-101.882A.787.787,0,0,0,146.71.053h0A.779.779,0,0,0,145.7.5a405.7,405.7,0,0,1-58.881,103.68A427.184,427.184,0,0,1,.325,186.5a.778.778,0,0,0-.179,1.086.786.786,0,0,0,1.1.179,428.757,428.757,0,0,0,86.809-82.618q.856-1.092,1.707-2.191" fill="#642b66"/>
      </g>
    </g>
    <g id="Group_2178" data-name="Group 2178" transform="translate(199.631 -20.492)">
      <g id="Group_2177" data-name="Group 2177" clip-path="url(#clip-path-2)">
        <path id="Path_10623" data-name="Path 10623" d="M194.769,183.33l-21.015-15.151-5.572,29.878a96.589,96.589,0,0,0,26.587-14.727" fill="#d13966"/>
        <path id="Path_10624" data-name="Path 10624" d="M171.107,165.179,151.359,148.41l-7.922,29.342a93.931,93.931,0,0,0,27.67-12.573" fill="#2bd6cc"/>
        <path id="Path_10625" data-name="Path 10625" d="M149.258,145.529,130.951,127.2l-10.3,28.594a91.392,91.392,0,0,0,28.608-10.262" fill="#ff0056"/>
        <path id="Path_10626" data-name="Path 10626" d="M129.215,124.374l-16.708-19.8L99.848,132.205a89,89,0,0,0,29.367-7.831" fill="#fff"/>
        <path id="Path_10627" data-name="Path 10627" d="M110.547,102.04,95.567,80.9,80.624,107.366a86.743,86.743,0,0,0,29.923-5.326" fill="#2bd6cc"/>
        <path id="Path_10628" data-name="Path 10628" d="M93.27,78.513,80.114,56.194,63.007,81.315a84.571,84.571,0,0,0,30.263-2.8" fill="#ff0056"/>
        <path id="Path_10629" data-name="Path 10629" d="M77.852,53.439,66.569,30.117,47.46,53.751c10.746,1.7,20.929,1.738,30.392-.312" fill="#fff"/>
        <path id="Path_10630" data-name="Path 10630" d="M64.329,26.8,54.931,2.66,34.009,24.7c10.632,2.581,20.787,3.454,30.32,2.1" fill="#2bd6cc"/>
        <path id="Path_10631" data-name="Path 10631" d="M109.869,102.953A407.95,407.95,0,0,1,52.47,1.071.787.787,0,0,1,52.919.053h0A.779.779,0,0,1,53.926.5a405.7,405.7,0,0,0,58.881,103.68,427.184,427.184,0,0,0,86.5,82.32.778.778,0,0,1,.179,1.086.786.786,0,0,1-1.1.179,428.757,428.757,0,0,1-86.809-82.618q-.856-1.092-1.707-2.191" fill="#642b66"/>
      </g>
    </g>
  </g>
</svg>
